<svg width="576" height="555" viewBox="0 0 576 555" fill="none" xmlns="http://www.w3.org/2000/svg">
<path d="M205.262 22.2209H48.1754V168.956H205.262V22.2209Z" fill="#EAEFF8"/>
<path d="M204.047 23.4374V167.74H49.392V23.4374H204.047ZM206.479 21.0056H204.047H49.392H46.9601V23.4374V167.74V170.172H49.392H204.047H206.479V167.74V23.4374V21.0056Z" fill="#A6B1FC"/>
<path d="M171.574 44.6031H81.8634V55.652H171.574V44.6031Z" fill="#A6B1FC"/>
<path d="M181.322 72.4147H70.6245V78.51H181.322V72.4147Z" fill="#C9D0FF"/>
<path d="M181.322 86.1304H70.6245V92.2257H181.322V86.1304Z" fill="#C9D0FF"/>
<path d="M181.322 99.845H70.6245V105.94H181.322V99.845Z" fill="#C9D0FF"/>
<path d="M121.496 113.561H70.6245V119.656H121.496V113.561Z" fill="#C9D0FF"/>
<path d="M181.324 113.049H131.053V152.934H181.324V113.049Z" fill="#C9D0FF"/>
<path d="M47.9497 24.8809V14.7905C47.9497 7.43155 53.9366 1.4446 61.2956 1.4446H192.143C199.502 1.4446 205.489 7.43155 205.489 14.7905V24.8809H47.9497Z" fill="#A6B1FC"/>
<path d="M192.143 2.88691C198.718 2.88691 204.047 8.21607 204.047 14.7905V23.4386H49.392V14.7905C49.392 8.21607 54.7211 2.88691 61.2956 2.88691H192.143ZM192.143 0H61.2956C53.1406 0 46.5062 6.63437 46.5062 14.7894V23.4374V26.3232H49.392H204.047H206.933V23.4374V14.7894C206.933 6.63552 200.298 0 192.143 0Z" fill="#A6B1FC"/>
<path d="M67.3079 11.8287C67.3079 14.5924 65.0684 16.8319 62.3048 16.8319C59.5411 16.8319 57.3016 14.5924 57.3016 11.8287C57.3016 9.06509 59.5411 6.8256 62.3048 6.8256C65.0684 6.8256 67.3079 9.06509 67.3079 11.8287Z" fill="#FC678A"/>
<path d="M87.3204 11.8287C87.3204 14.5924 85.0809 16.8319 82.3173 16.8319C79.5537 16.8319 77.3142 14.5924 77.3142 11.8287C77.3142 9.06509 79.5537 6.8256 82.3173 6.8256C85.0809 6.8256 87.3204 9.06509 87.3204 11.8287Z" fill="#4BEBAD"/>
<path d="M107.333 11.8287C107.333 14.5924 105.093 16.8319 102.33 16.8319C99.5662 16.8319 97.3267 14.5924 97.3267 11.8287C97.3267 9.06509 99.5662 6.8256 102.33 6.8256C105.092 6.8256 107.333 9.06509 107.333 11.8287Z" fill="white"/>
<path d="M539.732 50.2664H281.631V226.734H539.732V50.2664Z" fill="#EAEFF8"/>
<path d="M538.516 51.4829V225.518H282.847V51.4829H538.516ZM540.949 49.0499H538.517H282.847H280.415V51.4817V225.518V227.95H282.847H538.516H540.948V225.518V51.4829V49.0499H540.949Z" fill="#A6B1FC"/>
<path d="M281.405 52.9252V42.8348C281.405 35.4758 287.392 29.4889 294.751 29.4889H526.614C533.974 29.4889 539.961 35.4758 539.961 42.8348V52.9252H281.405Z" fill="#A6B1FC"/>
<path d="M526.614 30.9312C533.188 30.9312 538.517 36.2604 538.517 42.8348V51.4829H282.847V42.8348C282.847 36.2604 288.176 30.9312 294.751 30.9312H526.614ZM526.614 28.0454H294.751C286.596 28.0454 279.961 34.6798 279.961 42.8348V51.4829V54.3686H282.847H538.516H541.402V51.4829V42.8348C541.402 34.6798 534.768 28.0454 526.614 28.0454Z" fill="#A6B1FC"/>
<path d="M300.763 39.8742C300.763 42.6378 298.523 44.8773 295.76 44.8773C292.997 44.8773 290.757 42.6378 290.757 39.8742C290.757 37.1117 292.996 34.871 295.76 34.871C298.523 34.871 300.763 37.1105 300.763 39.8742Z" fill="#FC678A"/>
<path d="M320.776 39.8742C320.776 42.6378 318.536 44.8773 315.772 44.8773C313.009 44.8773 310.769 42.6378 310.769 39.8742C310.769 37.1117 313.009 34.871 315.772 34.871C318.535 34.871 320.776 37.1105 320.776 39.8742Z" fill="#4BEBAD"/>
<path d="M340.788 39.8742C340.788 42.6378 338.549 44.8773 335.785 44.8773C333.021 44.8773 330.782 42.6378 330.782 39.8742C330.782 37.1117 333.021 34.871 335.785 34.871C338.549 34.871 340.788 37.1105 340.788 39.8742Z" fill="white"/>
<path d="M371.593 225.518C370.314 216.637 363.942 172.613 363.268 172.704C362.025 172.873 361.061 174.353 360.02 176.559C359.172 178.356 358.521 180.24 358.01 182.178C357.234 185.125 350.284 217.973 348.69 225.518H371.593Z" fill="#1C2533"/>
<path d="M468.796 225.518C467.202 217.973 460.252 185.125 459.475 182.178C458.965 180.24 458.314 178.356 457.466 176.559C456.425 174.353 455.388 173.011 454.145 172.843C453.471 172.752 447.159 216.651 445.892 225.518H468.796Z" fill="#1C2533"/>
<path d="M367.837 189.733L365.442 172.725L391.907 160.696C395.235 159.182 397.463 156.015 397.722 152.43L399.218 131.8L419.078 131.857L420.799 152.858C421.078 156.263 423.096 159.24 426.2 160.822L452.562 174.25L450.708 189.732L367.837 189.733Z" fill="#FFB2A3"/>
<path d="M399.87 132.505L418.429 132.558L420.097 152.916C420.396 156.567 422.558 159.757 425.879 161.449L451.804 174.656L450.082 189.031H368.446L366.209 173.148L392.195 161.335C395.757 159.716 398.143 156.323 398.421 152.481L399.87 132.505ZM398.563 131.095L397.022 152.378C396.78 155.708 394.711 158.648 391.615 160.054L364.672 172.302L367.226 190.435H451.331L453.318 173.847L426.519 160.195C423.654 158.735 421.758 155.95 421.499 152.8C420.866 145.062 419.727 131.155 419.727 131.155L398.563 131.095Z" fill="#EF7D6E"/>
<path d="M397.951 144.327C404.93 151.759 413.864 150.55 420.9 145.498C420.328 138.51 419.725 131.156 419.725 131.156L398.562 131.095L397.617 144.137C397.734 144.165 397.848 144.217 397.951 144.327Z" fill="#EF7D6E"/>
<path d="M447.128 225.518L453.318 173.848L426.519 160.196C424.146 158.988 422.453 156.862 421.791 154.381H396.627C395.862 156.854 394.07 158.94 391.617 160.055L364.674 172.303L372.169 225.518H447.128Z" fill="#CCCCCC"/>
<path d="M412.936 222.601L414.782 212.407L409.918 161.881H408.396L403.532 212.407L405.378 222.601H412.936Z" fill="#2D3644"/>
<path d="M412.44 154.589H405.874L400.822 159.641L409.157 167.974L417.491 159.641L412.44 154.589Z" fill="#2D3644"/>
<path d="M396.902 150.197L409.086 154.636L399.844 167.853L391.519 160.055L396.902 150.197Z" fill="#F2F2F2"/>
<path d="M421.412 150.197L409.228 154.636L418.47 167.853L426.795 160.055L421.412 150.197Z" fill="#F2F2F2"/>
<path d="M449.037 225.518L454.145 172.843L428.274 158.63L409.117 215.203L390.037 158.659L363.268 172.704L368.663 225.518H449.037Z" fill="#2D3644"/>
<path d="M390.037 158.659L382.336 167.603L392.177 177.444L383.081 179.233L409.117 215.203L390.037 158.659Z" fill="#49566B"/>
<path d="M428.274 158.63L435.977 167.575L426.136 177.415L435.23 179.204L409.117 215.203L428.274 158.63Z" fill="#49566B"/>
<path d="M437.047 105.611C438.627 106.212 439.512 108.224 439.691 110.117C440.152 114.998 438.496 120.034 435.208 123.757C434.673 124.363 434.079 124.948 433.332 125.282C428.193 127.584 430.148 113.043 430.661 110.789C431.229 108.3 433.801 104.377 437.047 105.611Z" fill="#FFB2A3" stroke="#EF7D6E" stroke-width="1.1395" stroke-miterlimit="10" stroke-linecap="round" stroke-linejoin="round"/>
<path d="M437.02 111.19C436.948 110.842 436.873 110.487 436.685 110.183C436.499 109.879 436.174 109.629 435.808 109.623C435.127 109.612 434.741 110.365 434.557 111.002C434.079 112.66 433.831 114.381 433.818 116.102C433.931 115.915 434.224 115.902 434.409 116.025C434.593 116.147 434.686 116.361 434.749 116.569C435.23 118.181 434.092 120.072 432.407 120.458" fill="#FFB2A3"/>
<path d="M437.02 111.19C436.948 110.842 436.873 110.487 436.685 110.183C436.499 109.879 436.174 109.629 435.808 109.623C435.127 109.612 434.741 110.365 434.557 111.002C434.079 112.66 433.831 114.381 433.818 116.102C433.931 115.915 434.224 115.902 434.409 116.025C434.593 116.147 434.686 116.361 434.749 116.569C435.23 118.181 434.092 120.072 432.407 120.458" stroke="#EF7D6E" stroke-width="1.1395" stroke-miterlimit="10" stroke-linecap="round" stroke-linejoin="round"/>
<path d="M382.495 105.456C380.911 106.049 380.014 108.055 379.824 109.948C379.334 114.827 380.958 119.871 384.223 123.612C384.755 124.221 385.345 124.809 386.09 125.148C391.216 127.478 389.348 112.927 388.848 110.669C388.295 108.177 385.747 104.24 382.495 105.456Z" fill="#FFB2A3" stroke="#EF7D6E" stroke-width="1.1395" stroke-miterlimit="10" stroke-linecap="round" stroke-linejoin="round"/>
<path d="M382.487 111.036C382.561 110.689 382.639 110.334 382.828 110.03C383.017 109.726 383.343 109.478 383.708 109.475C384.39 109.468 384.771 110.222 384.951 110.86C385.419 112.522 385.658 114.243 385.66 115.965C385.548 115.778 385.254 115.762 385.07 115.884C384.885 116.006 384.79 116.218 384.726 116.426C384.235 118.036 385.362 119.934 387.045 120.329" fill="#FFB2A3"/>
<path d="M382.487 111.036C382.561 110.689 382.639 110.334 382.828 110.03C383.017 109.726 383.343 109.478 383.708 109.475C384.39 109.468 384.771 110.222 384.951 110.86C385.419 112.522 385.658 114.243 385.66 115.965C385.548 115.778 385.254 115.762 385.07 115.884C384.885 116.006 384.79 116.218 384.726 116.426C384.235 118.036 385.362 119.934 387.045 120.329" stroke="#EF7D6E" stroke-width="1.1395" stroke-miterlimit="10" stroke-linecap="round" stroke-linejoin="round"/>
<path d="M386.026 104.359C386.266 100.468 386.885 96.5733 387.863 92.9618C389.415 87.2329 392.918 81.9429 398.304 79.0272C404.252 75.8074 411.437 75.1957 417.903 76.6092C422.676 77.6529 427.236 80.2541 430.021 84.293C432.986 88.5934 433.264 95.0826 433.682 100.155C434.298 107.627 433.655 115.241 431.712 122.496C430.127 128.41 427.492 134.286 423.28 138.856C419.96 142.459 415.501 145.169 410.516 145.294C409.73 145.313 408.943 145.27 408.165 145.168C402.661 144.442 398.127 140.822 394.866 136.593C389.992 130.269 387.191 122.194 386.261 114.223C385.893 111.06 385.819 107.711 386.026 104.359Z" fill="#FFB2A3" stroke="#EF7D6E" stroke-width="1.1395" stroke-miterlimit="10" stroke-linecap="round" stroke-linejoin="round"/>
<path d="M406.095 85.2664C410.183 88.7731 411.803 93.623 415.998 97.0802C420.941 101.155 427.58 102.843 433.794 101.984C433.76 101.374 433.731 100.763 433.682 100.155C433.264 95.0826 432.986 88.5934 430.021 84.293C427.236 80.2541 422.676 77.6517 417.903 76.6092C411.437 75.1957 404.618 75.8258 398.29 78.2726C395.985 79.1643 395.963 81.921 395.151 82.5512C398.883 82.0581 403.35 82.9118 406.095 85.2664Z" fill="#EF7D6E"/>
<path d="M437.958 99.9452C439.117 92.3144 439.459 84.4577 436.361 77.2151C433.705 71.0047 428.515 65.9048 422.257 63.0547C418.905 61.5283 415.152 61.2346 411.476 60.9569C407.242 60.6378 402.958 60.9385 398.819 61.8612C396.471 62.3843 394.123 63.1273 392.188 64.5166C390.544 65.6963 389.693 67.134 388.904 68.9057C388.041 70.8422 386.43 69.7997 385.123 71.3215C384.252 72.3364 384.038 73.7199 383.857 75.0286C383.131 80.276 381.78 85.7929 381.641 91.0817C381.591 93.0217 381.896 95.0769 381.956 97.0445C382.037 99.6929 382.265 101.65 382.8 104.25C383.398 104.19 384.066 104.288 384.581 104.481C384.937 106.477 385.319 113.534 385.319 113.534H387.86C387.86 113.534 387.547 106.481 387.608 105.372C387.771 102.402 387.014 99.3877 389.211 97.1055C390.891 95.3603 396.41 88.9609 395.515 82.6214C400.24 81.5063 404.335 80.9626 408.831 83.3403C412.72 85.3978 415.807 88.5969 419.244 91.3087C422.68 94.0205 427.862 96.2116 432.286 95.9789C432.296 99.1745 431.893 113.534 431.893 113.534H434.077L434.897 108.862C434.897 108.862 435.097 104.179 437.509 104.52C437.852 102.686 437.674 101.818 437.958 99.9452Z" fill="#2D3644"/>
<path d="M410.19 124.634C409.086 124.265 407.894 123.833 407.279 122.87C406.7 121.961 406.782 120.811 406.883 119.747C407.27 115.692 407.656 111.638 408.043 107.584" fill="#FFB2A3"/>
<path d="M410.19 124.634C409.086 124.265 407.894 123.833 407.279 122.87C406.7 121.961 406.782 120.811 406.883 119.747C407.27 115.692 407.656 111.638 408.043 107.584" stroke="#EF7D6E" stroke-width="1.1395" stroke-miterlimit="10" stroke-linecap="round" stroke-linejoin="round"/>
<path d="M402.957 130.897C405.901 132.554 411.789 132.921 415.469 131.081" stroke="#EF7D6E" stroke-width="1.1395" stroke-miterlimit="10" stroke-linecap="round" stroke-linejoin="round"/>
<path d="M398.138 113.504C395.266 113.189 395.767 108.858 398.644 109.175C401.517 109.492 401.015 113.821 398.138 113.504Z" fill="#2D3644"/>
<path d="M390.064 104.928C392.121 104.292 394.152 103.603 396.34 103.591C398.595 103.58 400.51 104.242 402.608 104.945C403.328 105.186 403.706 104.171 403.111 103.796C399.344 101.419 393.301 101.468 389.718 104.126C389.346 104.401 389.529 105.092 390.064 104.928Z" fill="#2D3644"/>
<path d="M420.459 113.573C423.333 113.274 422.858 108.941 419.979 109.242C417.105 109.54 417.58 113.873 420.459 113.573Z" fill="#2D3644"/>
<path d="M428.936 104.242C425.367 101.564 419.326 101.481 415.544 103.837C414.954 104.204 415.311 105.227 416.04 104.989C418.154 104.294 420.035 103.612 422.316 103.671C424.502 103.727 426.526 104.393 428.584 105.042C429.114 105.209 429.309 104.522 428.936 104.242Z" fill="#2D3644"/>
<path d="M389.452 116.334V109.193C389.452 107.902 390.499 106.855 391.791 106.855H403.491C404.783 106.855 405.83 107.902 405.83 109.193V116.334C405.83 119.237 403.476 121.59 400.573 121.59H394.707C391.806 121.59 389.452 119.237 389.452 116.334Z" stroke="#2D3644" stroke-width="0.6229" stroke-miterlimit="10"/>
<path d="M412.862 116.334V109.193C412.862 107.902 413.909 106.855 415.2 106.855H426.901C428.193 106.855 429.24 107.902 429.24 109.193V116.334C429.24 119.237 426.886 121.59 423.983 121.59H418.117C415.215 121.59 412.862 119.237 412.862 116.334Z" stroke="#2D3644" stroke-width="0.6229" stroke-miterlimit="10"/>
<path d="M405.62 108.484H412.698" stroke="#2D3644" stroke-width="0.6229" stroke-miterlimit="10"/>
<path d="M429 108.399H434.355" stroke="#2D3644" stroke-width="0.6229" stroke-miterlimit="10"/>
<path d="M389.735 108.399H386.165" stroke="#2D3644" stroke-width="0.6229" stroke-miterlimit="10"/>
<path d="M391.743 210.584C393.037 205.08 389.624 199.569 384.12 198.275C378.617 196.981 373.106 200.394 371.812 205.897C370.518 211.401 373.93 216.912 379.434 218.206C384.938 219.5 390.449 216.087 391.743 210.584Z" fill="#FC678A"/>
<path d="M378.418 209.831H374.363V211.128H378.418V209.831Z" fill="white"/>
<path d="M389.156 209.831H385.101V211.128H389.156V209.831Z" fill="white"/>
<path d="M376.391 208.98C376.391 205.979 378.824 205.38 381.825 205.38C384.826 205.38 387.259 205.979 387.259 208.98" stroke="white" stroke-width="1.9646" stroke-miterlimit="10"/>
<path d="M446.838 215.494C450.836 211.496 450.836 205.015 446.838 201.017C442.84 197.019 436.359 197.019 432.361 201.017C428.364 205.015 428.364 211.496 432.361 215.494C436.359 219.491 442.84 219.491 446.838 215.494Z" fill="#4BEBAD"/>
<path d="M438.028 204.913V200.858H436.731V204.913H438.028Z" fill="white"/>
<path d="M438.027 215.651V211.596H436.73V215.651H438.027Z" fill="white"/>
<path d="M438.879 202.884C441.88 202.884 442.479 205.317 442.479 208.318C442.479 211.319 441.88 213.752 438.879 213.752" stroke="white" stroke-width="1.9646" stroke-miterlimit="10"/>
<path d="M299.127 110.22H165.08V256.955H299.127V110.22Z" fill="#EAEFF8"/>
<path d="M297.912 111.436V255.739H166.297V111.436H297.912ZM300.344 109.003H297.912H166.297H163.865V111.435V255.738V258.17H166.297H297.912H300.344V255.738V111.436V109.003Z" fill="#A6B1FC"/>
<path d="M265.439 132.602H198.768V143.651H265.439V132.602Z" fill="#A6B1FC"/>
<path d="M276.678 160.414H187.529V166.509H276.678V160.414Z" fill="#C9D0FF"/>
<path d="M276.678 174.128H187.529V180.223H276.678V174.128Z" fill="#C9D0FF"/>
<path d="M276.678 187.844H187.529V193.939H276.678V187.844Z" fill="#C9D0FF"/>
<path d="M276.678 201.56H187.529V207.655H276.678V201.56Z" fill="#C9D0FF"/>
<path d="M276.678 215.274H187.529V221.369H276.678V215.274Z" fill="#C9D0FF"/>
<path d="M164.854 112.879V102.788C164.854 95.4294 170.84 89.4424 178.201 89.4424H286.008C293.368 89.4424 299.355 95.4294 299.355 102.788V112.879H164.854Z" fill="#A6B1FC"/>
<path d="M286.008 90.8847C292.583 90.8847 297.912 96.2139 297.912 102.788V111.436H166.297V102.788C166.297 96.2139 171.626 90.8847 178.201 90.8847H286.008ZM286.008 87.999H178.201C170.046 87.999 163.411 94.6333 163.411 102.788V111.436V114.322H166.297H297.912H300.798V111.436V102.788C300.798 94.6333 294.163 87.999 286.008 87.999Z" fill="#A6B1FC"/>
<path d="M184.213 99.8277C184.213 102.591 181.973 104.831 179.21 104.831C176.446 104.831 174.207 102.591 174.207 99.8277C174.207 97.0652 176.446 94.8246 179.21 94.8246C181.972 94.8246 184.213 97.0641 184.213 99.8277Z" fill="#FC678A"/>
<path d="M204.225 99.8277C204.225 102.591 201.986 104.831 199.222 104.831C196.46 104.831 194.219 102.591 194.219 99.8277C194.219 97.0652 196.459 94.8246 199.222 94.8246C201.985 94.8246 204.225 97.0641 204.225 99.8277Z" fill="#4BEBAD"/>
<path d="M224.237 99.8277C224.237 102.591 221.997 104.831 219.234 104.831C216.471 104.831 214.231 102.591 214.231 99.8277C214.231 97.0652 216.47 94.8246 219.234 94.8246C221.997 94.8246 224.237 97.0641 224.237 99.8277Z" fill="white"/>
<path d="M279.679 527.147C380.119 527.147 461.542 519.184 461.542 509.36C461.542 499.537 380.119 491.573 279.679 491.573C179.239 491.573 97.8163 499.537 97.8163 509.36C97.8163 519.184 179.239 527.147 279.679 527.147Z" fill="#DFE8F8"/>
<path d="M380.731 292.675H286.368L302.572 233.434H396.935L380.731 292.675Z" fill="#D5DCF2"/>
<path d="M345.599 234.783C345.599 235.13 345.318 235.411 344.971 235.411C344.624 235.411 344.343 235.13 344.343 234.783C344.343 234.437 344.624 234.156 344.971 234.156C345.318 234.156 345.599 234.437 345.599 234.783Z" fill="#000540"/>
<path d="M378.219 289.74H290.487L305.084 236.37H392.817L378.219 289.74Z" fill="#000540"/>
<path d="M300.043 271.992L308.04 242.751H355.372L347.375 271.992H300.043Z" fill="#EAEFF8"/>
<path d="M354.576 243.359L346.911 271.385H300.84L308.506 243.359H354.576ZM356.17 242.142H354.576H308.506H307.577L307.332 243.037L299.666 271.063L299.246 272.6H300.839H346.91H347.838L348.084 271.705L355.749 243.679L356.17 242.142Z" fill="#A6B1FC"/>
<path d="M336.49 264.36L339.213 254.403H315.802L313.079 264.36H336.49Z" fill="#A6B1FC"/>
<path d="M312.889 250.563H345.662" stroke="#A6B1FC" stroke-width="2.1112" stroke-miterlimit="10"/>
<path d="M319.956 284.541L327.955 255.299H375.286L367.29 284.541H319.956Z" fill="#EAEFF8"/>
<path d="M374.491 255.908L366.826 283.933H320.755L328.42 255.908H374.491ZM376.084 254.691H374.491H328.42H327.492L327.246 255.586L319.581 283.612L319.16 285.149H320.754H366.824H367.753L367.998 284.254L375.664 256.228L376.084 254.691Z" fill="#A6B1FC"/>
<path d="M356.405 276.909L359.128 266.952H335.717L332.994 276.909H356.405Z" fill="#A6B1FC"/>
<path d="M332.804 263.112H365.576" stroke="#A6B1FC" stroke-width="2.1112" stroke-miterlimit="10"/>
<path d="M378.395 289.096L379.556 284.852C363.395 268.691 347.235 252.53 331.073 236.37H325.668L378.395 289.096Z" fill="url(#paint0_linear_18_2)"/>
<path d="M382.86 272.773L392.817 236.37H346.457L382.86 272.773Z" fill="url(#paint1_linear_18_2)"/>
<path d="M261.786 299.525H377.925V292.825H267.141C264.183 292.825 261.786 295.222 261.786 298.179V299.525Z" fill="#AFBADB"/>
<path d="M351.238 297.92V299.525H377.924V292.825H356.333C353.52 292.825 351.238 295.106 351.238 297.92Z" fill="#8B9BCC"/>
<path d="M433.517 307.673H362.094V505.48H433.517V307.673Z" fill="#A6B1FC"/>
<path d="M371.7 307.673H362.094V505.48H371.7V307.673Z" fill="#D4D9FF"/>
<path d="M362.094 314.603H371.7L433.517 307.673H362.094V314.603Z" fill="#5B6AD4"/>
<path d="M277.807 307.673H206.383V505.48H277.807V307.673Z" fill="#A6B1FC"/>
<path d="M215.989 307.673H206.383V505.48H215.989V307.673Z" fill="#D4D9FF"/>
<path d="M206.383 314.603H215.988L277.806 307.673H206.383V314.603Z" fill="#5B6AD4"/>
<path d="M447.727 299.837H182.965V307.737H447.727V299.837Z" fill="#A6B1FC"/>
<path d="M447.727 299.837H350.847V307.737H447.727V299.837Z" fill="#5B6AD4"/>
<path d="M176.387 153.938C176.373 153.791 176.37 153.642 176.354 153.495C176.277 152.796 176.174 152.099 176.038 151.406C174.886 145.522 169.048 133.82 161.357 137.113C156.927 139.011 151.913 143.895 149.043 147.729C145.533 152.419 145.154 160.088 145.754 165.651C146.488 172.464 148.671 200.241 151.664 206.405C157.478 218.378 167.282 239.879 175.724 250.047C176.416 232.28 175.77 182.31 176.387 163.515V153.938Z" fill="#522525"/>
<path d="M143.268 159.909H115.722V271.23H143.268V159.909Z" fill="#522525"/>
<path d="M252.311 299.837C252.311 299.837 251.89 287.887 267.635 287.887C283.379 287.887 284.953 297.617 284.953 299.837C284.953 299.837 251.636 299.162 252.311 299.837Z" fill="#000540"/>
<path d="M239.541 291.844L251.744 282.005L267.401 284.701L276.162 290.251C276.162 290.251 281.515 296.613 282.288 296.597C283.06 296.581 282.152 298.149 279.144 298.095C276.135 298.041 272.281 293.421 272.281 293.421L264.693 290.069C264.693 290.069 257.337 288.844 255.85 289.627C254.363 290.409 258.026 294.844 258.026 294.844L264.595 294.333C264.595 294.333 269.026 292.778 270.968 293.448C272.908 294.117 272.173 297.181 272.173 297.181L269.384 298.638L240.442 298.896L239.541 291.844Z" fill="#FFB2A3" stroke="#EF7D6E" stroke-width="1.2476" stroke-miterlimit="10" stroke-linecap="round" stroke-linejoin="round"/>
<path d="M171.843 232.622L194.649 273.671L244.159 283.897L244.633 299.624C244.633 299.624 194.978 300.621 192.283 299.56C189.587 298.499 140.384 259.244 140.384 259.244L171.843 232.622Z" fill="#201923"/>
<path d="M293.274 490.593C291.822 490.593 289.918 490.008 287.612 488.855C286.965 488.532 286.181 488.192 285.307 487.813C280.464 485.718 273.169 482.561 271.456 474.609C272.92 471.933 271.654 466.528 271.599 466.292C271.474 465.938 261.654 439.094 260.125 434.04C262.23 433.336 271.29 431.235 277.397 429.879L284.908 468.706C284.918 468.757 284.933 468.808 284.955 468.855C285.01 468.978 290.516 481.066 296.065 488.651C295.67 489.973 294.777 490.593 293.274 490.593Z" fill="#FFB2A3"/>
<path d="M276.873 430.676L284.254 468.833C284.273 468.935 284.305 469.034 284.348 469.129C284.574 469.625 289.81 481.124 295.322 488.761C294.983 489.584 294.358 489.929 293.274 489.929C291.926 489.929 290.121 489.368 287.908 488.263C287.238 487.928 286.464 487.593 285.568 487.205C280.898 485.184 273.889 482.15 272.155 474.698C273.532 471.797 272.387 466.739 272.243 466.138C272.231 466.088 272.216 466.039 272.198 465.991C272.099 465.719 262.963 440.747 260.954 434.48C263.484 433.745 270.351 432.129 276.873 430.676ZM277.918 429.084C277.918 429.084 259.213 433.219 259.334 433.689C260.191 437.04 270.953 466.446 270.953 466.446C270.953 466.446 272.31 472.126 270.753 474.492C272.731 484.464 283.077 487.331 287.314 489.45C288.443 490.015 291.055 491.258 293.274 491.258C294.897 491.258 296.312 490.593 296.785 488.511C291.149 480.915 285.558 468.581 285.558 468.581L277.918 429.084Z" fill="#EF7D6E"/>
<path d="M314.479 502.703C306.897 502.421 292.248 501.905 290.908 502.091C289.083 502.355 285.449 490.92 281.549 488.58C279.381 487.27 274.155 487.814 269.942 488.563C269.335 483.524 269.851 478.891 270.756 474.493C287.604 477.178 289.147 482.7 291.424 486.242C292.61 488.083 294.855 488.521 296.79 488.504C297.725 490.501 298.567 492.124 299.223 492.998C302.342 497.164 307.803 496.634 311.452 497.679C313.512 498.272 314.245 500.706 314.479 502.703Z" fill="#48404C"/>
<path d="M290.908 502.097C289.087 502.356 285.449 490.917 281.549 488.576C279.381 487.275 274.16 487.822 269.949 488.564C270.143 490.174 270.442 491.82 270.888 493.514C273.487 503.394 274.007 505.475 274.007 505.475H278.686L277.648 491.955C277.648 491.955 282.848 487.796 285.447 496.636C288.046 505.477 284.406 504.956 291.167 504.957C297.927 504.958 314.566 505.48 314.566 505.48C314.566 505.48 314.662 504.221 314.48 502.707C306.893 502.423 292.25 501.905 290.908 502.097Z" fill="#201923"/>
<path d="M162.348 322.03C162.348 322.03 149.624 350.108 164.486 359.47C179.348 368.831 237.587 370.92 237.587 370.92L248.498 443.722L285.419 429.686L261.074 354.707C259.716 350.524 256.422 347.254 252.23 345.926L196.513 328.274L161.153 320.469L162.348 322.03Z" fill="#201923"/>
<path d="M256.792 490.593C255.341 490.593 253.435 490.008 251.129 488.855C250.483 488.532 249.698 488.192 248.824 487.813C243.983 485.719 236.696 482.565 234.977 474.624C236.684 471.948 237.39 469.415 237.405 465.953C237.431 459.866 236.81 450.082 233.734 437.852C235.788 437.16 244.702 435.093 250.819 433.733L248.414 468.535C248.407 468.645 248.426 468.755 248.471 468.855C248.527 468.978 254.032 481.066 259.581 488.651C259.188 489.973 258.294 490.593 256.792 490.593Z" fill="#FFB2A3"/>
<path d="M250.094 434.574L247.75 468.488C247.735 468.708 247.774 468.928 247.865 469.129C248.091 469.625 253.327 481.124 258.839 488.761C258.501 489.584 257.875 489.929 256.791 489.929C255.443 489.929 253.638 489.368 251.425 488.263C250.756 487.928 249.982 487.593 249.085 487.205C244.425 485.188 237.436 482.163 235.684 474.745C237.358 472.042 238.054 469.453 238.069 465.955C238.094 459.93 237.49 450.31 234.53 438.303C236.964 437.589 243.651 436.012 250.094 434.574ZM251.541 432.892C251.541 432.892 232.836 437.026 232.957 437.496C233.814 440.847 236.796 452.666 236.74 465.948C236.724 469.757 235.826 472.125 234.271 474.49C236.249 484.463 246.595 487.329 250.832 489.449C251.961 490.014 254.572 491.257 256.791 491.257C258.415 491.257 259.829 490.592 260.302 488.51C254.667 480.914 249.075 468.579 249.075 468.579L251.541 432.892Z" fill="#EF7D6E"/>
<path d="M277.996 502.703C270.415 502.421 255.766 501.905 254.425 502.091C252.6 502.355 248.967 490.92 245.066 488.58C242.898 487.27 237.672 487.814 233.46 488.563C232.852 483.524 233.369 478.891 234.273 474.493C251.121 477.178 252.663 482.7 254.941 486.242C256.127 488.083 258.373 488.521 260.308 488.504C261.244 490.501 262.086 492.124 262.74 492.998C265.86 497.164 271.32 496.634 274.97 497.679C277.029 498.272 277.762 500.706 277.996 502.703Z" fill="#48404C"/>
<path d="M254.425 502.097C252.605 502.356 248.967 490.917 245.066 488.576C242.898 487.275 237.677 487.822 233.466 488.564C233.66 490.174 233.961 491.82 234.405 493.514C237.004 503.394 237.524 505.475 237.524 505.475H242.203L241.165 491.955C241.165 491.955 246.365 487.796 248.964 496.636C251.563 505.477 247.923 504.956 254.684 504.957C261.444 504.958 278.083 505.48 278.083 505.48C278.083 505.48 278.179 504.221 277.997 502.707C270.411 502.423 255.768 501.904 254.425 502.097Z" fill="#201923"/>
<path d="M142.021 331.173C142.021 331.173 129.296 359.251 144.158 368.613C159.02 377.976 221.205 377.21 221.205 377.21L232.115 450.012L262.564 438.83L246.974 357.188C246.974 357.188 248.729 345.987 225.974 344.542C207.782 343.387 176.184 337.417 176.184 337.417L140.826 329.613L142.021 331.173Z" fill="#352C38"/>
<path d="M150.71 205.747C150.71 205.747 166.199 231.314 169.248 241.461C172.296 251.609 179.144 341.053 179.144 341.053L199.792 332.698L183.162 292.55L184.069 249.709L158.74 206.017L150.71 205.747Z" fill="#352C38"/>
<path d="M157.49 214.654L160.028 207.845L166.689 217.317L162.734 218.358L169.915 225.54L172.753 254.137L169.915 243.547L157.49 214.654Z" fill="#5C4963"/>
<path d="M140.214 215.292L140.535 191.885L151.778 192.874L157.681 193.554C157.681 193.554 159.634 218.453 161.434 223.683C163.236 228.914 168.558 242.843 168.558 242.843L140.214 215.292Z" fill="#FFB2A3" stroke="#EF7D6E" stroke-width="1.2476" stroke-miterlimit="10" stroke-linecap="round" stroke-linejoin="round"/>
<path d="M146.661 202.646C149.447 206.335 153.021 209.641 156.676 212.467C157.907 213.418 159.172 214.274 160.464 215.044C159.32 205.945 158.41 193.678 158.398 193.503C158.372 193.158 158.106 192.881 157.763 192.841L151.797 192.156L140.553 191.167C140.299 191.162 140.08 191.294 139.946 191.492C141.946 195.037 144.206 199.395 146.661 202.646Z" fill="#EF7D6E"/>
<path d="M144.698 306.288C144.698 306.288 134.792 327.226 132.922 334.845C141.665 343.404 154.422 345.593 162.198 345.388C175.183 345.046 188.445 338.549 188.445 338.549L173.101 254.648L139.153 207.509L119.43 217.938L122.618 246.231L144.698 306.288Z" fill="#352C38"/>
<path d="M144.698 306.288C144.698 306.288 141.751 312.517 138.77 319.415C143.139 325.39 147.755 331.17 152.951 336.473C156.02 339.605 159.312 342.647 162.835 345.362C171.015 345.022 179.213 342.328 184.056 340.431C182.332 336.582 154.893 288.638 154.893 288.638C154.893 288.638 138.398 227.208 130.416 212.129L119.431 217.938L122.619 246.231L144.698 306.288Z" fill="#201923"/>
<path d="M169.915 243.547L163.468 226.952C163.407 227.831 162.263 228.892 161.043 229.559C156.715 231.928 151.557 226.104 151.557 226.104L162.582 243.498L172.752 254.138L169.915 243.547Z" fill="white"/>
<path d="M139.734 203.267L172.753 254.137L143.571 230.566L145.75 221.194L140.58 223.066L135.458 209.53L139.734 203.267Z" fill="#5C4963"/>
<path d="M176.755 335.315C176.755 335.315 181.358 345.261 188.415 345.235C195.472 345.209 201.424 346.795 201.424 346.795C201.424 346.795 204.451 347.732 205.487 347.104C206.522 346.477 206.02 345.653 206.02 345.653C206.02 345.653 210.039 346.603 210.698 347.219C211.357 347.833 213.58 348.285 214.907 347.54C216.234 346.795 216.234 346.795 216.234 346.795C216.234 346.795 217.896 347.204 218.542 346.124C219.189 345.045 208.805 338.749 207.196 337.638C205.588 336.528 194.385 333.556 194.385 333.556L184.337 332.084L176.755 335.315Z" fill="#FFB2A3" stroke="#EF7D6E" stroke-width="1.2476" stroke-miterlimit="10" stroke-linecap="round" stroke-linejoin="round"/>
<path d="M197.891 342.302C198.954 343.348 200.411 343.857 201.764 344.439C203.467 345.171 205.269 346.155 207.09 346.509C207.583 346.605 207.856 345.986 207.431 345.699C206.029 344.754 204.292 344.243 202.728 343.614C201.203 343 199.612 342.185 197.944 342.173C197.879 342.173 197.844 342.256 197.891 342.302Z" fill="#EF7D6E"/>
<path d="M204.528 340.024C206.635 341.283 208.785 342.449 210.914 343.674C212.818 344.769 214.659 346.251 216.699 347.06C217.136 347.232 217.453 346.595 217.143 346.297C215.485 344.698 213.144 343.585 211.143 342.465C209.006 341.27 207.002 340.318 204.578 339.902C204.509 339.891 204.459 339.983 204.528 340.024Z" fill="#EF7D6E"/>
<path d="M138.463 224.392L151.531 292.503L192.604 330.642L174.442 348.427L126.826 300.916C126.826 300.916 111.447 232.692 115.206 223.02C118.26 215.16 136.179 205.411 138.463 224.392Z" fill="#413645"/>
<path d="M121.142 167.801C122.069 175.179 126.036 181.2 131.481 186.305C137.447 191.899 143.566 196.9 151.403 199.983C154.973 201.387 158.351 202.31 162.19 202.664C163.641 202.798 164.442 203.018 165.83 202.298C167.202 201.587 168.35 200.503 169.224 199.278C170.573 197.388 171.334 195.181 172.023 192.991C173.27 189.032 174.342 184.997 174.691 180.877C174.936 177.985 174.817 175.048 174.163 172.209C173.857 170.885 173.418 169.828 172.757 168.663C172.098 167.503 172.226 166.123 172.134 164.832C171.898 161.516 170.97 158.271 169.585 155.23C168.383 152.592 166.96 149.47 165.316 147.094C161.572 141.684 153.557 138.698 147.022 138.643C139.475 138.579 132.032 142.032 127.219 147.584C122.406 153.135 120.241 160.645 121.142 167.801Z" fill="#FFB2A3" stroke="#EF7D6E" stroke-width="1.2203" stroke-miterlimit="10" stroke-linecap="round" stroke-linejoin="round"/>
<path d="M163.507 171.891C164.129 174.422 165.515 176.778 167.455 178.601C168.203 179.305 169.096 180.055 169.127 181.059C169.162 182.181 168.108 183.022 167.155 183.678" fill="#FFB2A3"/>
<path d="M163.507 171.891C164.129 174.422 165.515 176.778 167.455 178.601C168.203 179.305 169.096 180.055 169.127 181.059C169.162 182.181 168.108 183.022 167.155 183.678" stroke="#EF7D6E" stroke-width="1.2203" stroke-miterlimit="10" stroke-linecap="round" stroke-linejoin="round"/>
<path d="M145.936 172.618C147.543 171.688 148.76 170.382 150.546 169.671C152.449 168.913 154.358 168.912 156.369 168.714C156.918 168.66 156.861 167.914 156.422 167.755C152.945 166.499 146.634 168.624 145.476 172.241C145.398 172.484 145.683 172.765 145.936 172.618Z" fill="#522525"/>
<path d="M154.613 177.857C157.219 176.857 155.596 172.989 152.987 173.99C150.381 174.99 152.003 178.858 154.613 177.857Z" fill="#522525"/>
<path d="M170.203 173.116C172.863 172.256 171.468 168.307 168.805 169.168C166.145 170.028 167.54 173.976 170.203 173.116Z" fill="#522525"/>
<path d="M165.084 166.177C166.473 165.481 167.852 164.691 169.403 164.38C170.654 164.129 172.36 164.667 173.428 164.056C173.652 163.928 173.806 163.636 173.655 163.397C172.769 161.998 170.188 162.435 168.801 162.848C167.056 163.367 165.546 164.355 164.908 166.031C164.868 166.13 164.988 166.224 165.084 166.177Z" fill="#522525"/>
<path d="M162.413 190.566C164.431 190.59 166.451 189.988 168.095 188.872L162.413 190.566Z" fill="#FFB2A3"/>
<path d="M162.413 191.003C164.372 191.143 166.659 191.161 168.364 190.068C168.684 189.863 168.973 189.479 168.934 189.073C168.809 187.785 167.646 187.782 166.708 188.346C165.29 189.201 164.126 189.98 162.412 190.127C161.855 190.177 161.849 190.962 162.413 191.003Z" fill="#EF7D6E"/>
<path d="M164.09 192.833C164.94 193.035 165.865 192.936 166.648 192.56L164.09 192.833Z" fill="#FFB2A3"/>
<path d="M163.807 193.339C164.494 194.145 166.394 193.963 167.058 193.216C167.555 192.657 167.188 191.889 166.48 191.82C166.065 191.778 165.626 191.955 165.209 192.002C164.799 192.046 164.292 192.088 163.942 192.304C163.557 192.539 163.53 193.013 163.807 193.339Z" fill="#EF7D6E"/>
<path d="M142.862 130.594C132.417 132.938 123.44 140.215 118.688 149.326C113.736 158.819 114.642 170.131 119.167 179.632C125.506 192.94 135.515 194.556 139.86 194.35C137.095 192.154 135.345 188.323 134.894 186.483C134.216 183.712 133.943 183.264 136.042 180.889C137.405 179.349 139.448 178.524 141.037 177.196C146.532 172.598 145.197 163.522 150.337 158.564C152.974 156.02 156.803 155.076 160.258 153.688C163.935 152.211 168.003 149.346 168.145 145.147C168.284 140.951 165.204 137.065 162.003 134.487C156.308 129.898 149.466 129.112 142.862 130.594Z" fill="#522525"/>
<path d="M137.046 181.388C135.687 179.552 132.953 178.108 130.618 177.946C126.362 177.65 125.44 181.857 127.121 184.814C129.32 188.68 134.392 193.077 139.32 191.002" fill="#FFB2A3"/>
<path d="M137.046 181.388C135.687 179.552 132.953 178.108 130.618 177.946C126.362 177.65 125.44 181.857 127.121 184.814C129.32 188.68 134.392 193.077 139.32 191.002" stroke="#EF7D6E" stroke-width="1.2203" stroke-miterlimit="10" stroke-linecap="round" stroke-linejoin="round"/>
<path d="M130.353 183.73C129.593 183.059 129.772 181.726 130.574 181.379C132.594 180.507 134.67 183.166 135.366 184.678C134.351 184.739 134.186 185.95 134.787 186.586C135.383 187.217 136.483 187.452 137.338 187.303" stroke="#EF7D6E" stroke-width="1.2203" stroke-miterlimit="10" stroke-linecap="round" stroke-linejoin="round"/>
<path d="M104.154 317.526L97.6609 320.852L124.816 373.864L131.309 370.538L104.154 317.526Z" fill="#D4D9FF"/>
<path d="M122.988 317.528L116.495 320.854L143.651 373.866L150.144 370.54L122.988 317.528Z" fill="#D4D9FF"/>
<path d="M140.386 328.691C137.488 317.333 123.782 287.831 121.273 283.442C114.428 271.463 72.4135 275.184 72.4135 275.184L95.5042 328.691H140.386Z" fill="#5B6AD4"/>
<path d="M172.492 433.737H160.318V492.554H172.492V433.737Z" fill="#D4D9FF"/>
<path d="M216.298 487.754H115.998V495.674H216.298V487.754Z" fill="#5B6AD4"/>
<path d="M126.094 509.099C130.115 509.099 133.374 505.84 133.374 501.819C133.374 497.799 130.115 494.54 126.094 494.54C122.074 494.54 118.815 497.799 118.815 501.819C118.815 505.84 122.074 509.099 126.094 509.099Z" fill="#5B6AD4"/>
<path d="M206.643 509.099C210.664 509.099 213.923 505.84 213.923 501.819C213.923 497.799 210.664 494.54 206.643 494.54C202.623 494.54 199.364 497.799 199.364 501.819C199.364 505.84 202.623 509.099 206.643 509.099Z" fill="#5B6AD4"/>
<path d="M175.917 372.932H156.893V445.473H175.917V372.932Z" fill="#D4D9FF"/>
<path d="M175.917 372.932H156.893V386.062H175.917V372.932Z" fill="#5B6AD4"/>
<path d="M217.881 366.512L113.074 366.19L117.832 377.378L222.137 380.167L217.881 366.512Z" fill="#5B6AD4"/>
<mask id="mask0_18_2" style="mask-type:luminance" maskUnits="userSpaceOnUse" x="0" y="356" width="576" height="199">
<path d="M576 356.005H0V554.771H576V356.005Z" fill="white"/>
</mask>
<g mask="url(#mask0_18_2)">
<path d="M564.698 565.223C553.395 563.03 543.502 554.634 539.5 543.84C537.625 538.781 536.984 533.336 535.144 528.265C531.022 516.9 521.398 508.567 512.07 500.877C508.515 497.946 504.886 494.964 502.407 491.081C499.535 486.583 498.42 481.219 497.358 475.989C495.903 468.823 494.446 461.657 492.992 454.49C492.331 451.24 491.654 447.94 490.131 444.993C486.387 437.754 478.331 433.938 472.879 427.88C468.977 423.547 466.44 418.002 465.711 412.217C464.761 404.676 466.81 397.122 467.591 389.561C468.372 382.001 467.548 373.548 462.119 368.228C473.134 370.681 482.981 377.969 488.546 387.786C494.353 398.031 495.839 410.968 504.382 419.073C512.215 426.505 524.987 428.767 529.858 438.403C533.132 444.879 531.824 453.165 535.915 459.158C537.778 461.887 540.566 463.821 543.292 465.688C553.126 472.424 563.71 480.122 566.637 491.677C568.192 497.815 567.338 504.331 568.545 510.546C570.712 521.7 579.355 531.219 579.552 542.582C579.718 552.194 572.918 561.51 563.713 564.284" fill="#A6B1FC"/>
<path d="M466.062 368.839C470.201 371.193 474.349 373.664 477.8 377.027C479.527 378.694 481.042 380.607 482.157 382.759C483.301 384.899 483.955 387.278 484.292 389.664C484.634 392.056 484.699 394.459 484.818 396.838C484.923 399.22 485.078 401.596 485.265 403.968C485.672 408.707 486.287 413.433 487.468 418.016C488.048 420.307 488.763 422.564 489.677 424.732C490.55 426.919 491.641 429.009 492.906 430.982C495.422 434.951 498.861 438.221 502.585 441.157C506.284 444.125 510.222 446.878 513.761 450.194C517.303 453.465 520.319 457.573 521.831 462.254C523.361 466.898 523.915 471.699 524.841 476.336C525.769 480.938 527.114 485.584 530.206 489.048C533.241 492.55 537.724 494.499 541.6 497.416C545.525 500.293 548.777 504.025 551.253 508.184C553.751 512.337 555.39 516.986 556.138 521.759C556.53 524.146 556.581 526.585 556.567 528.965C556.574 531.346 556.576 533.72 557.136 536.003C558.154 540.614 560.617 544.787 562.722 549.06C563.777 551.203 564.774 553.398 565.412 555.712C566.056 558.017 566.288 560.462 565.875 562.821C566.229 560.451 565.935 558.031 565.24 555.762C564.549 553.483 563.508 551.331 562.403 549.223C560.204 545.015 557.616 540.901 556.439 536.163C555.812 533.802 555.788 531.351 555.744 528.971C555.724 526.58 555.641 524.228 555.227 521.903C554.432 517.263 552.773 512.761 550.291 508.764C547.821 504.767 544.636 501.198 540.849 498.432C537.125 495.628 532.54 493.697 529.21 489.929C527.533 488.093 526.336 485.88 525.442 483.611C524.549 481.331 523.961 478.968 523.473 476.612C522.515 471.9 521.932 467.16 520.448 462.719C519.024 458.264 516.237 454.42 512.804 451.206C509.382 447.968 505.485 445.211 501.754 442.191C498.008 439.213 494.435 435.796 491.844 431.661C490.547 429.61 489.418 427.448 488.547 425.189C487.637 422.945 486.939 420.627 486.381 418.284C485.243 413.597 484.693 408.811 484.348 404.038C484.194 401.648 484.07 399.258 483.999 396.87C483.918 394.481 483.872 392.103 483.587 389.757C483.315 387.413 482.74 385.107 481.681 383C480.649 380.882 479.214 378.967 477.549 377.278C474.222 373.871 470.142 371.294 466.062 368.839Z" fill="white"/>
<path d="M579.635 569.173C582.962 563.094 586.289 557.014 589.617 550.935C596.719 537.959 603.961 522.462 597.747 509.038C593.293 499.414 582.589 493.038 580.531 482.635C579.272 476.269 581.593 469.824 582.801 463.448C585.386 449.811 582.692 435.242 575.401 423.43C571.447 417.024 566.192 411.38 563.193 404.476C558.137 392.833 560.2 379.48 562.353 366.971C558.564 378.25 548.991 386.385 541.061 395.256C533.131 404.127 526.241 415.983 529.566 427.407C533.435 440.698 549.994 448.99 549.74 462.831C549.593 470.885 543.537 477.573 541.461 485.357C539.463 492.846 541.491 501.286 546.674 507.049C551.931 512.896 560.424 516.627 562.181 524.291C564.043 532.416 557.065 540.745 559.24 548.793C561.244 556.208 569.688 559.419 575.566 564.364L579.635 569.173Z" fill="#5B6AD4"/>
<path d="M559.71 374.204C555.919 381.803 553.253 389.942 551.856 398.283C551.125 402.448 550.701 406.663 550.606 410.885C550.548 415.094 550.545 419.375 551.612 423.389C552.645 427.416 555.201 430.828 557.331 434.546C559.45 438.29 561.104 442.295 562.208 446.453C564.442 454.757 564.524 463.65 562.434 471.992C561.432 476.138 560.184 480.194 559.905 484.332C559.776 486.393 559.879 488.457 560.383 490.447C560.875 492.439 561.684 494.352 562.682 496.173C564.678 499.83 567.392 503.099 569.939 506.509C571.222 508.209 572.471 509.957 573.579 511.807C574.714 513.643 575.565 515.647 576.351 517.654C577.826 521.721 578.458 526.024 578.653 530.288C578.852 534.56 578.66 538.819 578.438 543.059C577.963 551.503 577.297 560.079 579.353 568.378C577.061 560.14 577.484 551.474 577.722 543.027C577.865 538.788 577.996 534.55 577.73 530.339C577.472 526.137 576.782 521.947 575.295 518.041C573.832 514.123 571.503 510.623 568.93 507.271C566.388 503.899 563.621 500.615 561.516 496.816C560.468 494.923 559.597 492.903 559.059 490.772C558.506 488.64 558.385 486.415 558.511 484.244C558.789 479.882 560.045 475.748 561.015 471.652C563.095 463.523 563.056 454.905 560.925 446.794C559.87 442.738 558.279 438.828 556.234 435.171C554.175 431.554 551.563 427.974 550.529 423.673C549.479 419.428 549.565 415.107 549.687 410.857C549.853 406.593 550.337 402.342 551.157 398.158C552.799 389.787 555.709 381.693 559.71 374.204Z" fill="white"/>
<path d="M553.127 571.266C553.597 564.952 548.764 559.304 543.162 556.353C537.56 553.402 531.165 552.423 525.115 550.557C519.065 548.691 512.913 545.543 509.978 539.933C508.691 537.474 508.114 534.698 506.888 532.209C503.243 524.807 494.437 521.219 486.19 520.995C478.535 520.788 470.113 522.719 463.742 518.469C458.958 515.277 456.796 509.472 453.496 504.761C448.362 497.431 439.923 492.515 431.015 491.662C422.107 490.81 412.888 494.037 406.458 500.261C410.906 492.867 415.759 485.486 422.588 480.212C429.417 474.937 438.633 472.048 446.848 474.689C457.542 478.125 464.72 490.029 475.918 490.92C482.864 491.474 489.315 487.519 496.163 486.227C507.143 484.156 519.147 489.77 524.593 499.527C526.714 503.326 527.889 507.594 530.02 511.387C534.28 518.967 541.888 523.926 548.907 529.058C555.926 534.19 562.994 540.343 565.195 548.755C567.398 557.166 553.127 571.266 553.127 571.266Z" fill="#5B6AD4"/>
<path d="M406.477 499.34L416.43 491.473C419.77 488.891 422.963 486.082 426.701 483.967C428.568 482.924 430.596 482.105 432.737 481.725C434.875 481.363 437.095 481.407 439.205 481.908C443.453 482.879 447.219 485.187 450.549 487.84C453.908 490.512 456.819 493.604 459.929 496.423C463.019 499.246 466.37 501.817 470.205 503.32C474.032 504.802 478.269 505.154 482.332 504.513C484.368 504.199 486.361 503.629 488.268 502.856C490.179 502.074 492.051 501.065 494.089 500.291C496.115 499.505 498.39 499.067 500.613 499.284C502.839 499.473 504.977 500.203 506.898 501.247C510.755 503.363 513.82 506.574 516.257 510.109C518.67 513.692 520.447 517.554 522.426 521.268C524.397 524.973 526.542 528.604 529.473 531.54C532.392 534.488 536.089 536.574 539.697 538.773C543.296 540.958 546.982 543.35 549.578 546.83C552.185 550.272 553.591 554.464 554.132 558.666C554.66 562.893 554.24 567.192 553.127 571.266C554.126 567.162 554.418 562.874 553.778 558.715C553.127 554.58 551.625 550.52 549.01 547.266C546.451 543.965 542.849 541.684 539.222 539.566C535.602 537.431 531.797 535.379 528.684 532.341C525.562 529.326 523.306 525.599 521.311 521.864C519.3 518.13 517.499 514.292 515.161 510.864C512.801 507.473 509.83 504.42 506.236 502.478C504.445 501.517 502.493 500.87 500.498 500.711C498.496 500.53 496.513 500.918 494.602 501.659C492.679 502.374 490.811 503.368 488.805 504.18C486.791 504.984 484.688 505.574 482.542 505.893C478.259 506.546 473.782 506.155 469.718 504.559C465.655 502.94 462.195 500.233 459.077 497.358C455.927 494.492 453.067 491.365 449.844 488.712C446.632 486.068 443.02 483.79 438.996 482.807C436.996 482.297 434.905 482.227 432.873 482.535C430.838 482.858 428.882 483.621 427.038 484.593C423.339 486.547 420.057 489.267 416.645 491.756L406.477 499.34Z" fill="white"/>
</g>
<mask id="mask1_18_2" style="mask-type:luminance" maskUnits="userSpaceOnUse" x="0" y="356" width="576" height="199">
<path d="M576 356.005H0V554.771H576V356.005Z" fill="white"/>
</mask>
<g mask="url(#mask1_18_2)">
<path d="M-13.7895 570.383C-3.23368 569.978 6.91545 563.752 12.058 554.524C14.468 550.201 15.8123 545.351 18.1912 541.011C23.5227 531.284 33.4184 525.076 42.9558 519.41C46.5903 517.251 50.2986 515.056 53.0911 511.882C56.3259 508.206 58.0896 503.498 59.7853 498.904C62.1101 492.609 64.4337 486.314 66.7584 480.02C67.8125 477.164 68.8896 474.267 70.6844 471.808C75.0943 465.769 82.9348 463.437 88.7282 458.709C92.8742 455.326 95.9512 450.653 97.4246 445.509C99.3439 438.804 98.5444 431.667 98.8957 424.701C99.2471 417.735 101.179 410.186 106.849 406.123C96.5169 406.803 86.5647 412.031 80.1423 420.154C73.44 428.63 70.2789 440.154 61.3947 446.306C53.25 451.946 41.351 452.207 35.583 460.263C31.7065 465.678 31.7307 473.374 27.1803 478.235C25.109 480.45 22.3096 481.811 19.5759 483.122C9.71481 487.851 -0.963083 493.35 -5.237 503.417C-7.5076 508.765 -7.64699 514.793 -9.6123 520.26C-13.1409 530.072 -22.3119 537.492 -24.0837 547.768C-25.5825 556.462 -20.7222 565.864 -12.7642 569.669" fill="#5B6AD4"/>
<path d="M103.187 406.126C99.1434 407.78 95.0814 409.545 91.5885 412.168C89.8421 413.467 88.2708 415.002 87.0393 416.777C85.7836 418.54 84.9392 420.55 84.3644 422.639C83.7768 424.726 83.4024 426.876 82.9935 429.031C82.5937 431.188 82.1479 433.337 81.6721 435.482C80.6918 439.764 79.5202 444.027 77.8314 448.118C76.1725 452.206 73.9583 456.138 71.0023 459.482C68.0728 462.868 64.3541 465.466 60.541 467.641C56.7336 469.856 52.8122 471.81 49.256 474.267C45.6929 476.7 42.6262 479.795 40.7105 483.636C38.7429 487.456 37.5494 491.671 36.0195 495.81C35.2477 497.878 34.3814 499.938 33.2524 501.88C32.1235 503.812 30.7284 505.652 28.9497 507.082C25.4027 510.031 20.9744 511.14 17.2028 513.161C13.3804 515.139 9.99238 517.928 7.19302 521.206C4.38099 524.483 2.24634 528.333 0.874304 532.429C0.172736 534.48 -0.231615 536.602 -0.585279 538.766C-0.958527 540.918 -1.32486 543.138 -2.22342 545.191C-3.95488 549.323 -6.87865 552.69 -9.46259 556.198C-10.7597 557.955 -12.0062 559.76 -12.952 561.73C-13.9001 563.691 -14.506 565.844 -14.5176 568.042C-14.5613 565.845 -14.0084 563.661 -13.1006 561.661C-12.1963 559.652 -10.9867 557.802 -9.7287 556.007C-7.2208 552.427 -4.40186 548.988 -2.83283 544.949C-1.21658 540.949 -1.39398 536.402 0.0690565 532.172C1.4169 527.949 3.55386 523.962 6.40275 520.546C9.23091 517.124 12.703 514.194 16.6659 512.135C20.5896 510.034 24.9281 508.895 28.1721 506.144C31.4611 503.436 33.3319 499.412 34.8191 495.368C36.3098 491.293 37.4849 487.016 39.5228 483.02C41.5491 478.988 44.8611 475.686 48.5314 473.215C52.2051 470.705 56.1611 468.76 59.9327 466.588C63.7217 464.447 67.2986 461.965 70.1372 458.717C71.5599 457.106 72.842 455.363 73.9411 453.503C75.0746 451.665 76.0388 449.719 76.8867 447.722C78.6009 443.732 79.8197 439.532 80.8531 435.294C81.3553 433.168 81.8288 431.035 82.2585 428.89C82.6997 426.749 83.096 424.579 83.7411 422.458C84.3793 420.342 85.3078 418.276 86.6442 416.495C87.9574 414.7 89.599 413.177 91.3985 411.908C94.9962 409.339 99.1031 407.68 103.187 406.126Z" fill="white"/>
<path d="M-4.39261 577.418C-3.89264 571.106 1.74524 566.262 7.73219 564.203C13.7191 562.144 20.1888 562.154 26.4522 561.233C32.7168 560.312 39.2762 558.142 43.0341 553.046C44.6814 550.813 45.6756 548.158 47.2677 545.886C52.0012 539.128 61.2506 536.928 69.4345 537.966C77.0319 538.93 85.059 542.125 92.0033 538.898C97.2184 536.474 100.242 531.067 104.223 526.917C110.416 520.457 119.506 516.887 128.44 517.407C137.374 517.925 145.989 522.523 151.395 529.655C148.129 521.668 144.461 513.634 138.518 507.379C132.574 501.123 123.909 496.86 115.388 498.213C104.294 499.976 95.3821 510.642 84.1812 509.813C77.2312 509.299 71.4608 504.405 64.891 502.082C54.3571 498.357 41.6378 502.073 34.7639 510.882C32.0878 514.312 30.2745 518.352 27.5881 521.773C22.2197 528.612 13.9449 532.352 6.22422 536.352C-1.49533 540.351 -9.42109 545.351 -12.8817 553.327C-16.3412 561.304 -4.39261 577.418 -4.39261 577.418Z" fill="#A6B1FC"/>
<path d="M151.516 528.743L142.626 519.694C139.635 516.713 136.807 513.524 133.45 511.027C131.777 509.784 129.961 508.732 127.998 508.101C126.037 507.486 123.96 507.236 121.906 507.434C117.779 507.792 113.861 509.49 110.283 511.612C106.694 513.741 103.389 516.395 99.8392 518.746C96.3187 521.112 92.486 523.257 88.2236 524.236C83.9635 525.193 79.4799 524.895 75.3465 523.595C73.2752 522.951 71.2857 522.048 69.4195 520.946C67.5613 519.838 65.8667 518.57 64.0754 517.569C62.3013 516.546 60.4005 515.859 58.3948 515.732C56.3996 515.584 54.3721 515.927 52.4551 516.602C48.6074 517.971 45.2044 520.535 42.3555 523.525C39.5216 526.556 37.1554 530.074 34.5968 533.457C32.0544 536.843 29.255 540.181 25.7103 542.684C22.1702 545.21 18.0967 546.657 14.1926 548.214C10.2862 549.754 6.37628 551.457 3.34421 554.327C0.263766 557.143 -1.84209 560.926 -3.1162 564.913C-4.38455 568.925 -4.74974 573.207 -4.39031 577.416C-4.86839 573.22 -4.62763 568.907 -3.45835 564.811C-2.28215 560.741 -0.25233 556.813 2.85001 553.81C5.94658 550.767 9.95554 548.967 13.8458 547.357C17.7465 545.733 21.7186 544.237 25.0537 541.771C28.3979 539.318 31.0717 536.057 33.5854 532.697C36.1082 529.33 38.456 525.784 41.3867 522.612C44.3358 519.491 47.8552 516.786 51.9897 515.284C54.0495 514.545 56.274 514.151 58.5008 514.305C60.7311 514.43 62.913 515.21 64.7942 516.296C66.6904 517.372 68.3861 518.656 70.1545 519.721C71.9216 520.777 73.804 521.644 75.767 522.265C79.6838 523.519 83.9255 523.819 87.9333 522.94C91.9526 522.04 95.6574 520.01 99.1411 517.694C102.644 515.383 105.993 512.771 109.721 510.644C113.418 508.532 117.492 506.826 121.839 506.516C124 506.343 126.2 506.639 128.258 507.322C130.315 508.024 132.194 509.144 133.88 510.459C137.252 513.12 139.976 516.385 142.884 519.447L151.516 528.743Z" fill="white"/>
</g>
<defs>
<linearGradient id="paint0_linear_18_2" x1="397.025" y1="157.943" x2="333.599" y2="305.665" gradientUnits="userSpaceOnUse">
<stop stop-color="white"/>
<stop offset="1" stop-color="white" stop-opacity="0"/>
</linearGradient>
<linearGradient id="paint1_linear_18_2" x1="404.727" y1="161.25" x2="341.301" y2="308.971" gradientUnits="userSpaceOnUse">
<stop stop-color="white"/>
<stop offset="1" stop-color="white" stop-opacity="0"/>
</linearGradient>
</defs>
</svg>
